<svg version="1.2" xmlns="http://www.w3.org/2000/svg" viewBox="0 0 512 512" width="512" height="512"><style>.a{fill:#930303}.b{mix-blend-mode:overlay;fill:#930303}</style><path fill-rule="evenodd" class="a" d="m512 256c0 141.4-114.6 256-256 256-141.4 0-256-114.6-256-256 0-141.4 114.6-256 256-256 141.4 0 256 114.6 256 256zm-48 0c0-114.9-93.1-208-208-208-114.9 0-208 93.1-208 208 0 114.9 93.1 208 208 208 114.9 0 208-93.1 208-208z"/><path class="b" d="m336 128l-80 80-80-80-48 48 80 80-80 80 48 48 80-80 80 80 48-48-80-80 80-80z"/></svg>